<svg width="3193" height="493" viewBox="0 0 3193 493" fill="none" xmlns="http://www.w3.org/2000/svg">
<path d="M713.172 389L578.967 259.852V389H533.843V112.81H578.967V231.844L689.832 112.81H747.404L624.48 245.07L774.634 389H713.172ZM900.706 349.711C927.677 349.711 950.498 340.116 969.17 320.925C987.842 301.734 997.178 278.394 997.178 250.905C997.178 223.416 987.842 200.076 969.17 180.885C950.498 161.694 927.677 152.099 900.706 152.099C873.476 152.099 850.525 161.694 831.853 180.885C813.181 200.076 803.845 223.416 803.845 250.905C803.845 278.394 813.181 301.734 831.853 320.925C850.525 340.116 873.476 349.711 900.706 349.711ZM1001.85 352.045C974.098 379.794 940.384 393.668 900.706 393.668C861.028 393.668 827.315 379.923 799.566 352.434C771.818 324.685 757.943 290.842 757.943 250.905C757.943 210.968 771.818 177.254 799.566 149.765C827.315 122.016 861.028 108.142 900.706 108.142C940.384 108.142 974.098 122.016 1001.85 149.765C1029.6 177.514 1043.47 211.227 1043.47 250.905C1043.47 290.583 1029.6 324.296 1001.85 352.045ZM1093.41 389V112.81H1138.92V345.432H1265.35V389H1093.41ZM1306.9 389V112.81H1402.21C1426.33 112.81 1446.04 120.201 1461.34 134.983C1476.9 149.765 1484.68 167.789 1484.68 189.054C1484.68 211.875 1476.12 229.64 1459 242.347C1488.57 254.536 1503.35 276.449 1503.35 308.088C1503.35 331.169 1494.92 350.489 1478.06 366.049C1461.47 381.35 1440.2 389 1414.27 389H1306.9ZM1352.42 347.377H1413.1C1427.62 347.377 1438.91 343.746 1446.94 336.485C1454.98 329.224 1459 319.628 1459 307.699C1459 296.029 1454.98 286.563 1446.94 279.302C1438.91 271.781 1427.62 268.021 1413.1 268.021H1352.42V347.377ZM1352.42 229.121H1399.88C1412.06 229.121 1421.79 225.62 1429.05 218.618C1436.31 211.616 1439.94 202.669 1439.94 191.777C1439.94 181.404 1436.31 172.586 1429.05 165.325C1421.79 158.064 1412.06 154.433 1399.88 154.433H1352.42V229.121ZM1552.31 389V112.81H1718.41V156.378H1597.82V227.176H1695.07V270.744H1597.82V345.432H1718.41V389H1552.31ZM1770.74 389V112.81H1870.33C1895.74 112.81 1915.97 120.201 1931.01 134.983C1946.31 149.506 1953.96 168.307 1953.96 191.388C1953.96 210.838 1948.51 226.917 1937.62 239.624C1926.99 252.072 1911.56 260.5 1891.33 264.909L1994.03 389H1938.01L1836.87 267.632H1816.25V389H1770.74ZM1816.25 227.954H1864.88C1878.36 227.954 1889 224.842 1896.78 218.618C1904.56 212.135 1908.45 203.058 1908.45 191.388C1908.45 179.718 1904.56 170.771 1896.78 164.547C1889 158.064 1878.36 154.822 1864.88 154.822H1816.25V227.954ZM2067.93 389V156.378H1987.79V112.81H2193.96V156.378H2113.44V389H2067.93ZM2296.08 389L2414.33 112.81H2470.35L2588.6 389H2524.03L2499.52 330.65H2385.16L2360.65 389H2296.08ZM2442.34 194.111L2407.33 276.968H2476.96L2442.34 194.111ZM2640.73 389V112.81H2702.58V389H2640.73Z" fill="#1A2087"/>
<path d="M36.8204 386L210.026 86L272.182 193.658L161.133 386H36.8204Z" fill="#2CA6FF"/>
<path d="M210.039 86L150 386H390.312L210.039 86Z" fill="url(#paint0_linear_1901_2)"/>
<defs>
<linearGradient id="paint0_linear_1901_2" x1="170" y1="368" x2="283" y2="236" gradientUnits="userSpaceOnUse">
<stop stop-color="#252EC6"/>
<stop offset="1" stop-color="#121660"/>
</linearGradient>
</defs>
</svg>
